Coordinates
version=1
nRows=6
nColumns=36
inDegrees=yes

Units are S.I. units (second, meters, Newtons, ...)
If the header above contains a line with 'inDegrees', this indicates whether rotational values are in degrees (yes) or radians (no).

endheader
time	pelvis_tilt	pelvis_list	pelvis_rotation	pelvis_tx	pelvis_ty	pelvis_tz	hip_flexion_r	hip_adduction_r	hip_rotation_r	knee_angle_r	knee_angle_r_beta	ankle_angle_r	subtalar_angle_r	mtp_angle_r	hip_flexion_l	hip_adduction_l	hip_rotation_l	knee_angle_l	knee_angle_l_beta	ankle_angle_l	subtalar_angle_l	mtp_angle_l	lumbar_extension	lumbar_bending	lumbar_rotation	arm_flex_r	arm_add_r	arm_rot_r	elbow_flex_r	pro_sup_r	arm_flex_l	arm_add_l	arm_rot_l	elbow_flex_l	pro_sup_l
      1.71000000	    -13.96882611	     -4.61674486	     -4.46500614	     -0.38417682	      0.57426436	     -0.58941956	     87.13509221	     -5.69471410	     -0.37045362	    109.19295402	      1.90577657	     33.59504591	     -7.80125611	     -7.24155591	     89.02515007	    -10.38968047	     10.29312837	    112.69177380	      1.96684249	     37.47597303	     -1.83930641	     -7.24155591	    -39.22600810	      0.59693544	     -1.07605992	     19.54007159	    -27.68554955	      9.19593593	     63.91535707	    112.38051939	     -2.73204608	    -13.78530322	     -9.79829730	     45.96611845	     88.85587633
      1.72000000	    -14.21751354	     -4.48239674	     -4.40075639	     -0.38120616	      0.56625900	     -0.58987893	     88.09993719	     -6.51776651	     -0.32012289	    110.66497297	      1.93146814	     34.99914186	     -6.09997736	     -7.25286793	     90.02700356	    -10.21786413	     10.44167908	    114.14034655	      1.99212486	     37.95514585	     -1.44215869	     -7.25286793	    -39.93250481	      0.60594776	     -1.89231620	     20.53515498	    -27.40746160	     12.47392919	     58.19215057	    112.26300199	     -2.85143785	    -13.74745994	     -9.19476690	     41.65815253	     88.59515056
      1.73000000	    -14.53483752	     -4.32796113	     -4.34984412	     -0.37833323	      0.55903521	     -0.59012174	     89.06015337	     -7.08062365	     -0.15096789	    111.96015290	      1.95407330	     35.88600987	     -5.33930144	     -7.26660090	     91.00954848	    -10.04938912	     10.58894601	    115.42236225	      2.01450025	     38.33124383	     -1.27833829	     -7.26660090	    -40.48945136	      0.53065895	     -2.41350265	     21.03415235	    -26.87033618	     14.83639217	     52.65312536	    112.17123490	     -2.91309612	    -13.36251602	     -9.82879962	     38.30849183	     88.49079501
      1.74000000	    -14.84137785	     -4.29098285	     -4.23901573	     -0.37559758	      0.55275671	     -0.59038698	     89.87501960	     -7.49722615	     -0.02373413	    113.06431165	      1.97334450	     36.46483665	     -5.03357862	     -7.27433846	     91.84949107	     -9.65698560	     10.95154989	    116.53097500	      2.03384919	     38.57157690	     -1.32474411	     -7.27433846	    -40.97888794	      0.60372011	     -2.44749569	     20.79479644	    -26.27951034	     15.87316059	     47.88443249	    112.07801488	     -2.47954108	    -12.87293881	    -10.55089800	     34.98605100	     88.31886550
      1.75000000	    -15.24699602	     -4.41848975	     -4.17800883	     -0.37307028	      0.54712287	     -0.59053830	     90.67381936	     -7.65259098	      0.00074034	    113.99711681	      1.98962503	     36.93798176	     -4.88088435	     -7.28106246	     92.72116496	     -9.25471484	     11.51629229	    117.51728287	      2.05106351	     38.84045003	     -1.45170658	     -7.28106246	    -41.27077556	      0.82797120	     -2.22341484	     20.49330844	    -25.71447622	     17.00232197	     43.34987225	    112.03525003	     -1.99693739	    -12.37503302	    -11.19266078	     32.08015325	     88.20949178
      1.76000000	    -15.69753286	     -4.67003305	     -4.16840163	     -0.37064059	      0.54241063	     -0.59066361	     91.34079609	     -7.54372615	     -0.00523569	    114.72216204	      2.00227945	     37.29409878	     -4.93151971	     -7.30020873	     93.62037928	     -9.16449128	     12.01134849	    118.35189635	      2.06563027	     39.16633998	     -1.33570274	     -7.30020873	    -41.42532445	      1.20018740	     -2.30012836	     21.08450387	    -25.12533522	     20.39194865	     38.02870258	    112.25901031	     -2.01620361	    -11.90595937	    -12.00018242	     29.93828485	     88.57322611
